<?xml version="1.0" standalone="no"?>
<!DOCTYPE svg PUBLIC "-//W3C//DTD SVG 20010904//EN"
 "http://www.w3.org/TR/2001/REC-SVG-20010904/DTD/svg10.dtd">
<svg version="1.0" xmlns="http://www.w3.org/2000/svg"
 width="260.000000pt" height="260.000000pt" viewBox="0 0 260.000000 260.000000"
 preserveAspectRatio="xMidYMid meet">
<metadata>
Created by potrace 1.11, written by Peter Selinger 2001-2013
</metadata>
<g transform="translate(0.000000,260.000000) scale(0.100000,-0.100000)"
fill="#000000" stroke="none">
<path d="M540 2590 c0 -5 8 -7 18 -4 14 5 14 4 2 -4 -9 -7 -19 -7 -26 -2 -7 7
-19 1 -35 -17 -13 -14 -18 -23 -11 -19 20 12 14 -5 -10 -25 -11 -11 -18 -19
-15 -19 3 0 0 -12 -8 -27 -11 -20 -11 -30 -3 -41 9 -10 8 -12 -1 -10 -8 2 -15
-5 -16 -14 -2 -10 0 -18 4 -18 4 0 8 -7 8 -15 0 -13 -4 -12 -20 2 -14 13 -18
14 -12 3 15 -24 17 -52 3 -44 -7 4 -8 3 -4 -5 4 -6 2 -19 -6 -28 -9 -12 -9
-15 0 -9 8 5 12 0 12 -13 0 -12 -6 -21 -12 -21 -8 0 -9 -3 -3 -8 6 -4 11 -13
13 -21 2 -11 0 -12 -10 -4 -10 9 -13 5 -13 -17 -1 -16 3 -26 7 -24 15 10 8 -9
-9 -23 -10 -8 -13 -12 -6 -9 6 4 14 2 18 -4 3 -5 -1 -10 -10 -10 -13 0 -14 -4
-4 -21 9 -17 8 -20 -2 -14 -9 6 -11 3 -6 -9 5 -11 3 -15 -5 -10 -8 5 -9 -2 -5
-24 4 -19 2 -32 -3 -32 -6 0 -10 5 -10 12 0 6 -3 8 -7 4 -5 -4 0 -13 10 -21
15 -11 15 -13 2 -18 -8 -4 -12 -13 -9 -22 3 -8 11 -12 16 -9 6 4 5 -3 -1 -15
-7 -11 -9 -21 -5 -21 3 0 1 -7 -6 -15 -7 -8 -16 -13 -20 -10 -5 3 -7 -3 -5
-12 1 -10 -2 -26 -7 -35 -6 -13 -5 -16 6 -12 16 6 17 -19 1 -33 -4 -5 -4 -1 0
7 8 13 6 13 -8 2 -13 -11 -14 -18 -5 -38 9 -20 9 -27 -1 -34 -11 -6 -11 -9 0
-13 11 -4 10 -9 -5 -21 -18 -15 -18 -16 -2 -16 9 0 15 -4 11 -10 -3 -5 -13 -7
-23 -4 -9 3 -6 -1 7 -9 20 -12 21 -15 7 -20 -12 -5 -15 -3 -10 6 5 9 3 8 -7
-1 -12 -11 -12 -14 1 -22 8 -5 10 -10 4 -10 -7 0 -15 -7 -18 -16 -5 -14 -4
-15 8 -5 11 9 16 9 22 -1 4 -7 4 -10 -1 -6 -4 4 -14 1 -21 -7 -16 -15 -19 -29
-5 -21 11 7 8 -21 -4 -31 -4 -4 -5 -2 -1 5 4 6 2 12 -3 12 -14 0 -14 -17 -1
-25 6 -3 10 -13 10 -21 0 -10 -5 -12 -12 -8 -8 5 -7 0 2 -11 13 -17 13 -18 -1
-13 -9 4 -16 1 -16 -8 0 -7 3 -11 7 -9 3 2 6 -5 6 -15 0 -15 -3 -16 -14 -8
-10 9 -12 8 -10 -3 2 -8 8 -17 13 -21 6 -5 5 -8 -2 -8 -7 0 -13 -7 -13 -15 0
-8 -6 -15 -12 -15 -7 0 -5 -5 5 -11 18 -10 18 -11 0 -26 -10 -8 -13 -12 -6 -9
20 10 9 -55 -13 -71 -19 -15 -19 -15 2 -9 16 5 20 2 20 -17 0 -13 -6 -24 -13
-24 -9 0 -10 4 -2 14 7 8 8 13 1 13 -14 0 -25 -32 -13 -39 13 -8 7 -44 -7 -49
-7 -2 -12 -8 -12 -13 0 -6 4 -7 10 -4 5 3 10 1 10 -4 0 -6 -7 -11 -16 -11 -8
0 -12 -5 -9 -10 4 -6 12 -8 18 -4 7 3 3 -2 -7 -10 -13 -10 -15 -16 -7 -16 10
0 11 -3 2 -14 -9 -11 -9 -15 1 -19 8 -4 7 -6 -4 -6 -10 -1 -18 -6 -18 -12 0
-5 4 -7 10 -4 6 4 7 -1 3 -11 -5 -13 -3 -15 8 -9 11 7 11 5 -1 -11 -8 -10 -19
-22 -25 -26 -6 -5 -6 -8 2 -8 13 0 12 -25 -2 -37 -4 -4 -5 -3 -1 4 3 6 1 15
-6 19 -7 4 -10 4 -6 -1 4 -4 2 -15 -5 -23 -8 -11 -8 -14 0 -9 6 4 14 3 17 -2
3 -5 -2 -12 -11 -15 -12 -5 -13 -10 -5 -18 6 -6 8 -17 5 -26 -5 -11 -3 -13 7
-7 9 5 11 4 6 -4 -4 -6 -12 -9 -17 -6 -13 8 -11 -9 2 -22 8 -8 8 -13 -1 -18
-7 -5 -8 -11 -1 -19 8 -9 7 -13 -3 -13 -14 0 -16 14 -4 33 4 6 1 11 -6 11 -8
0 -12 -11 -11 -26 1 -14 -5 -35 -14 -45 -16 -19 -15 -19 14 0 l30 18 -18 -21
c-14 -16 -15 -22 -5 -26 9 -4 7 -6 -4 -6 -9 -1 -20 -6 -24 -13 -4 -6 -3 -8 3
-5 6 4 14 0 17 -9 3 -8 2 -13 -3 -9 -14 8 -20 -17 -9 -37 5 -11 5 -18 -1 -18
-5 0 -12 -7 -15 -16 -5 -14 -4 -15 9 -4 13 11 14 10 9 -4 -3 -9 -10 -16 -15
-16 -4 0 -6 -7 -3 -15 4 -8 11 -12 17 -8 5 3 7 1 4 -5 -8 -11 -24 -11 -47 2
-8 4 -5 -2 8 -13 l23 -20 -22 -22 c-13 -13 -16 -20 -7 -17 8 4 15 1 15 -7 0
-8 -7 -11 -16 -7 -14 5 -14 3 -2 -11 11 -14 11 -17 0 -17 -11 0 -11 -2 0 -9
12 -8 12 -12 2 -25 -11 -13 -11 -16 0 -16 10 0 11 -2 2 -8 -12 -8 -13 -29 -1
-48 4 -6 1 -11 -7 -11 -8 0 -11 5 -8 11 4 6 0 5 -9 -2 -12 -10 -16 -35 -17
-117 -1 -71 2 -105 9 -105 6 0 8 5 4 12 -4 7 -3 8 4 4 6 -4 9 -13 6 -21 -4 -8
-11 -12 -18 -8 -7 4 -7 1 1 -9 7 -8 9 -19 5 -23 -4 -5 -2 -5 4 -2 6 4 19 -2
29 -13 10 -11 29 -20 42 -20 14 0 21 -4 18 -10 -4 -6 -11 -7 -17 -4 -6 4 -8 2
-4 -4 9 -15 193 -13 206 3 7 8 5 12 -5 12 -8 0 -11 -5 -8 -10 3 -6 1 -7 -6 -3
-6 4 -9 12 -5 17 3 6 9 8 12 5 3 -3 12 0 20 7 10 7 13 8 9 1 -4 -7 2 -11 18
-11 16 0 25 5 25 14 0 13 2 13 17 2 14 -12 16 -12 8 0 -6 11 -4 13 7 8 9 -3
20 -1 24 3 5 5 20 11 33 13 12 2 26 8 29 13 12 16 46 40 38 27 -4 -9 -1 -13 9
-13 10 0 15 6 12 13 -3 8 1 14 9 14 7 0 10 -5 7 -11 -3 -6 0 -5 8 2 16 15 33
16 23 0 -4 -7 -3 -8 4 -4 7 4 12 14 12 22 0 8 5 12 10 9 6 -4 7 -11 4 -17 -4
-7 -2 -8 4 -4 6 4 9 13 5 22 -3 8 -2 14 3 13 5 -1 11 0 14 1 19 7 39 7 35 -1
-9 -14 29 3 43 20 8 9 11 10 7 4 -3 -7 -1 -13 4 -13 6 0 11 10 11 23 0 17 2
19 9 8 8 -13 12 -13 26 -1 13 11 18 11 24 1 6 -10 13 -7 25 10 10 15 16 18 16
9 0 -13 1 -13 9 0 6 8 8 17 6 20 -2 4 16 6 41 5 33 -2 42 1 34 10 -7 8 -5 12
5 12 8 0 15 -4 15 -9 0 -4 8 -8 18 -8 14 0 15 2 2 10 -13 8 -13 11 -1 22 10
10 12 10 7 1 -10 -18 4 -16 28 4 15 13 17 14 8 2 -9 -13 -9 -16 3 -16 8 0 15
6 15 14 0 11 4 11 23 2 20 -11 21 -11 8 5 -8 9 -10 16 -5 14 19 -5 75 12 69
22 -3 6 0 7 9 4 9 -3 13 -11 10 -18 -2 -6 3 -1 12 12 16 21 17 21 31 5 8 -10
12 -12 8 -6 -3 7 -1 21 5 30 10 16 11 16 6 -2 -6 -19 -5 -19 8 -2 15 19 31 23
20 5 -6 -9 -3 -9 9 0 9 8 21 11 28 7 8 -5 9 -1 4 15 -6 20 -5 21 8 9 8 -8 12
-18 9 -23 -3 -5 0 -6 6 -2 6 4 9 13 6 20 -3 8 0 17 7 22 7 4 10 3 6 -3 -4 -6
0 -14 8 -17 9 -3 18 1 21 8 3 8 14 16 25 19 10 3 17 1 14 -3 -3 -5 -1 -11 4
-14 5 -4 8 5 7 18 -2 17 1 23 10 19 8 -3 11 -10 8 -17 -3 -6 4 1 17 16 17 20
28 25 38 19 10 -7 19 -4 29 7 13 16 13 16 8 -1 -8 -24 1 -21 31 11 15 15 23
20 18 12 -6 -12 -5 -13 6 -3 16 16 33 17 23 1 -4 -7 -3 -8 4 -4 7 4 12 14 12
22 0 8 4 14 10 14 5 0 7 -8 4 -18 -5 -16 -5 -16 6 1 12 19 35 24 25 5 -4 -7 0
-4 9 6 8 10 12 24 9 30 -4 6 1 5 10 -3 12 -9 17 -10 17 -2 0 8 5 9 19 1 14 -7
22 -7 27 2 5 7 3 8 -6 3 -9 -5 -11 -4 -6 4 4 6 16 9 26 6 10 -3 22 0 26 6 4 8
3 9 -4 5 -7 -4 -12 -2 -12 3 0 14 13 14 27 0 7 -7 15 -6 26 5 10 10 18 12 22
6 3 -5 12 -10 18 -10 7 0 6 4 -3 10 -12 8 -13 11 -1 19 7 5 23 6 35 4 17 -4
18 -3 6 6 -8 6 -10 11 -5 11 6 0 17 -6 24 -12 11 -11 13 -10 8 3 -4 13 -1 16
15 11 14 -3 19 -1 14 6 -4 7 -3 12 3 12 5 0 11 -6 14 -12 3 -10 7 -10 19 -1 8
7 18 9 23 5 4 -4 2 3 -4 16 -14 26 -9 28 13 6 15 -14 16 -14 16 2 0 13 3 14
15 4 12 -10 15 -10 15 0 0 7 7 10 15 7 8 -4 17 -2 21 4 3 6 12 8 19 5 9 -3 12
1 10 12 -2 12 4 17 21 18 22 2 23 0 12 -15 -10 -13 -9 -13 8 2 11 9 24 14 29
10 4 -5 4 3 0 17 -7 23 -7 23 9 7 21 -21 27 -22 20 -2 -5 12 1 14 26 11 21 -2
30 0 27 9 -3 6 1 12 9 12 7 0 11 -3 9 -7 -2 -4 2 -7 10 -7 8 0 13 3 10 5 -8 8
34 34 45 27 6 -3 10 -2 10 3 0 6 7 13 16 16 15 6 15 4 3 -11 -12 -15 -12 -16
1 -8 8 5 21 17 28 26 7 10 18 16 25 14 18 -6 48 20 50 43 0 11 5 18 9 16 5 -3
5 -10 2 -16 -4 -7 -2 -8 4 -4 9 5 9 13 2 26 -7 13 -7 21 2 26 6 4 8 3 4 -4 -3
-6 -1 -14 5 -17 13 -9 10 159 -4 178 -6 8 -7 7 -3 -5 3 -10 1 -20 -5 -23 -5
-4 -9 -3 -8 2 4 25 -2 43 -13 37 -7 -5 -9 -2 -5 9 5 12 0 15 -21 12 -15 -2
-21 -2 -14 1 6 3 12 10 12 15 0 6 -4 8 -9 5 -5 -3 -11 3 -14 14 -4 14 -10 18
-23 13 -13 -5 -16 -3 -11 10 3 9 1 19 -5 23 -7 5 -8 2 -3 -6 6 -10 4 -12 -9
-7 -10 4 -21 7 -24 7 -4 0 0 5 8 11 12 9 11 10 -8 6 -12 -3 -20 -1 -16 4 3 5
0 9 -6 9 -6 0 -8 5 -5 10 6 9 -8 15 -29 11 -5 -1 -6 5 -3 13 4 10 1 13 -9 9
-9 -3 -14 1 -14 12 0 9 -4 14 -8 11 -4 -2 -14 -1 -22 5 -13 7 -13 9 0 9 13 0
13 1 0 10 -20 13 -33 12 -24 -2 4 -7 3 -8 -4 -4 -6 4 -9 13 -6 20 6 16 -21 40
-35 31 -7 -3 -8 0 -5 9 7 19 -7 21 -25 4 -10 -11 -11 -7 -7 15 4 25 3 27 -11
15 -12 -9 -15 -10 -9 0 4 7 0 15 -11 19 -42 15 -75 46 -70 65 4 16 3 17 -9 7
-11 -9 -14 -9 -14 0 0 7 -5 9 -12 5 -8 -5 -9 -2 -5 11 6 14 3 16 -12 12 -15
-3 -18 -1 -14 11 5 11 2 14 -9 9 -22 -8 -30 3 -15 21 9 13 9 14 0 8 -7 -4 -13
-2 -13 3 0 6 -3 10 -7 10 -21 -3 -33 2 -27 13 5 8 0 9 -15 5 -19 -5 -20 -3 -9
11 11 13 10 15 -9 10 -16 -4 -20 -2 -16 10 5 11 3 13 -7 7 -10 -6 -12 -4 -6
10 5 15 4 16 -9 5 -13 -11 -15 -9 -16 11 0 13 -3 19 -6 12 -3 -10 -7 -10 -18
0 -8 7 -10 16 -4 23 6 8 2 10 -15 7 -21 -4 -28 1 -40 28 -8 20 -15 27 -15 17
-1 -10 -5 -18 -10 -18 -4 0 -7 11 -6 25 3 21 1 23 -15 15 -13 -7 -21 -7 -26 2
-4 7 -3 8 4 4 7 -4 12 -1 12 7 0 7 -7 14 -15 15 -8 1 -21 3 -29 4 -8 1 -11 9
-8 20 3 13 -1 18 -14 18 -16 0 -17 -2 -4 -11 13 -9 13 -10 0 -6 -10 2 -14 14
-13 32 2 27 2 27 -13 9 -9 -10 -13 -14 -10 -8 3 6 -4 20 -17 30 -12 10 -16 12
-9 4 19 -22 14 -32 -6 -12 -10 9 -16 23 -14 31 4 10 1 12 -8 6 -9 -6 -12 -4
-8 7 4 8 0 15 -8 15 -7 0 -10 -5 -7 -10 4 -6 1 -7 -6 -3 -7 5 -10 15 -6 23 4
13 3 13 -9 4 -11 -10 -16 -6 -27 18 -7 16 -16 28 -20 25 -9 -5 -70 52 -63 59
3 3 -2 4 -13 3 -29 -5 -46 13 -31 32 9 10 9 13 1 9 -6 -4 -25 6 -42 24 -18 18
-38 29 -46 25 -8 -3 -14 0 -12 7 1 7 -4 11 -12 9 -12 -3 -12 0 -1 13 11 13 10
15 -4 9 -9 -3 -16 -1 -16 5 0 6 -8 11 -17 11 -15 0 -16 2 -3 10 12 8 11 10 -7
10 -13 0 -26 0 -29 -1 -8 -1 -33 33 -34 45 0 6 7 1 16 -10 14 -18 15 -18 4 5
-9 17 -15 20 -23 12 -12 -12 -37 3 -37 22 0 6 7 2 16 -9 15 -18 15 -18 4 3 -5
12 -15 25 -22 29 -7 4 -8 3 -4 -4 4 -7 2 -12 -3 -12 -6 0 -11 5 -11 11 0 5 -5
7 -10 4 -6 -4 -10 -3 -9 2 3 19 -2 31 -17 37 -10 4 -13 2 -8 -7 4 -6 4 -9 -1
-5 -4 4 -13 18 -19 30 -6 12 -26 26 -43 30 -18 5 -33 14 -33 20 0 9 3 9 12 0
7 -7 17 -12 23 -12 9 1 -24 24 -35 25 -15 1 -29 18 -24 28 4 7 4 9 -1 5 -4 -4
-14 0 -22 10 -8 9 -12 12 -9 6 3 -6 -1 -11 -8 -11 -8 0 -12 6 -9 14 5 11 -8
18 -29 14 -4 0 -4 7 -1 16 4 10 2 14 -5 9 -6 -3 -17 2 -24 11 -7 10 -25 24
-40 32 -15 8 -25 18 -22 23 3 4 -4 8 -15 8 -11 0 -23 5 -27 12 -4 7 -3 8 4 4
7 -4 12 -3 12 2 0 5 -38 9 -85 10 -49 1 -85 -2 -85 -8z m-7 -23 c3 -7 -3 -13
-14 -13 -13 0 -15 3 -7 13 6 7 12 13 13 13 2 0 5 -6 8 -13z m462 -217 c3 -6
-1 -7 -9 -4 -18 7 -21 14 -7 14 6 0 13 -4 16 -10z m317 -274 c9 -18 8 -19 -3
-6 -8 8 -21 20 -29 27 -13 11 -13 12 3 7 10 -4 22 -16 29 -28z m-947 -176 c-3
-5 -11 -10 -16 -10 -6 0 -7 5 -4 10 3 6 11 10 16 10 6 0 7 -4 4 -10z m495 -41
c0 -8 4 -8 14 0 11 9 16 9 22 0 5 -8 3 -9 -6 -4 -9 6 -11 4 -6 -4 5 -7 15 -10
23 -7 9 4 17 -1 20 -14 3 -11 10 -20 15 -20 5 0 6 5 3 10 -10 16 1 11 16 -7
10 -11 10 -14 2 -9 -7 4 -13 3 -13 -1 0 -5 9 -14 20 -21 12 -7 18 -18 14 -24
-4 -7 -3 -8 5 -4 6 4 8 13 5 19 -4 7 2 3 13 -8 11 -11 18 -24 15 -30 -3 -5 2
-4 11 3 14 12 16 11 12 -8 -4 -19 -2 -20 13 -9 9 7 14 9 9 4 -4 -5 5 -15 20
-22 27 -12 27 -13 3 -8 -14 3 -19 2 -12 -1 6 -3 10 -9 7 -14 -3 -5 6 -7 19 -6
14 2 25 0 24 -3 -4 -19 17 -41 39 -41 23 0 24 -2 12 -17 -10 -11 -10 -14 -1
-9 7 4 12 2 12 -6 0 -9 3 -9 10 2 8 13 10 13 10 -1 0 -9 8 -23 17 -30 15 -12
16 -12 8 1 -5 8 4 3 19 -12 16 -15 32 -25 37 -23 4 3 11 0 15 -6 4 -8 3 -9 -4
-5 -7 4 -12 3 -12 -2 0 -12 29 -24 40 -17 4 3 6 -5 3 -17 -4 -19 -3 -20 6 -8
9 13 11 13 11 -2 0 -10 5 -18 10 -18 6 0 13 0 18 -1 11 -1 52 -41 52 -51 0 -5
-11 3 -25 18 -14 15 -25 23 -25 18 0 -15 43 -49 58 -46 6 2 12 -4 12 -13 0 -8
5 -15 11 -15 5 0 7 5 3 12 -4 7 -3 8 4 4 7 -4 12 -14 12 -22 0 -8 7 -14 15
-14 8 0 15 -4 15 -10 0 -5 5 -10 11 -10 5 0 7 5 3 12 -4 7 -3 8 4 4 6 -4 9
-13 5 -21 -3 -8 0 -15 7 -15 6 0 8 -5 4 -12 -5 -8 0 -7 11 2 11 9 16 10 11 3
-4 -8 -2 -13 4 -13 20 0 42 -30 36 -47 -6 -15 -5 -15 13 1 19 17 19 17 14 -6
-4 -18 -3 -20 6 -8 8 11 11 12 11 2 0 -8 5 -10 13 -6 8 6 8 3 -1 -9 -12 -14
-11 -16 8 -12 19 4 20 2 8 -12 -9 -12 -9 -15 0 -9 7 4 12 2 12 -4 0 -6 4 -9 9
-5 5 3 12 1 16 -5 4 -6 11 -7 17 -4 7 5 8 2 4 -5 -8 -13 20 -51 37 -51 5 0 -1
8 -13 18 -18 14 -19 19 -7 19 9 0 14 -4 12 -8 -3 -4 2 -9 10 -13 8 -3 15 -15
15 -26 0 -12 4 -19 9 -15 5 3 13 0 17 -7 4 -7 4 -10 -1 -6 -15 14 -35 -12 -25
-32 7 -13 5 -22 -7 -31 -9 -8 -14 -9 -10 -3 4 7 0 14 -8 18 -8 3 -14 0 -12 -7
1 -7 -4 -11 -12 -9 -12 3 -12 1 0 -14 13 -16 12 -16 -10 -4 -21 11 -23 10 -18
-3 6 -16 -9 -17 -32 -3 -10 7 -12 6 -6 -4 6 -10 4 -12 -8 -7 -11 4 -17 1 -17
-9 0 -8 -5 -12 -10 -9 -6 4 -7 11 -4 17 5 7 2 8 -5 4 -7 -5 -10 -14 -7 -22 3
-7 0 -16 -6 -20 -6 -4 -8 -3 -5 3 4 6 0 16 -8 23 -12 10 -14 8 -10 -8 2 -13
-2 -19 -13 -19 -44 0 -63 -4 -58 -11 2 -4 -4 -13 -15 -20 -10 -7 -19 -8 -19
-3 0 5 6 11 13 14 6 2 8 8 4 13 -4 5 -12 2 -16 -5 -6 -8 -14 -10 -22 -5 -11 6
-11 3 1 -12 8 -10 10 -16 5 -11 -4 4 -16 0 -26 -9 -11 -10 -19 -12 -24 -5 -3
6 -11 11 -16 11 -6 0 -7 -4 -4 -10 3 -5 1 -10 -5 -10 -6 0 -9 -4 -6 -8 3 -5
-2 -9 -10 -9 -10 0 -11 4 -4 11 5 5 10 14 10 20 0 5 -9 -1 -20 -14 -11 -13
-20 -18 -20 -11 0 7 -5 9 -10 6 -6 -4 -7 -11 -4 -17 4 -6 0 -6 -13 1 -11 6
-24 7 -28 3 -3 -4 -10 -7 -13 -7 -10 0 -52 -31 -49 -36 1 -2 -4 2 -10 10 -11
13 -13 12 -13 -3 0 -13 -5 -17 -19 -13 -11 2 -33 -4 -50 -14 -17 -10 -31 -16
-31 -12 0 4 -6 -2 -14 -12 -12 -17 -16 -18 -31 -5 -16 14 -17 13 -10 -10 7
-25 7 -25 -10 -5 -11 13 -15 15 -12 5 3 -11 -3 -16 -21 -18 -14 -1 -31 -7 -38
-13 -11 -9 -18 -8 -31 2 -9 8 -14 9 -10 3 4 -7 0 -15 -9 -18 -9 -3 -12 -11 -8
-18 4 -7 -2 -4 -14 6 -12 11 -25 16 -29 13 -3 -4 -1 -7 5 -7 7 0 12 -4 12 -9
0 -5 -10 -7 -22 -3 -16 4 -19 2 -13 -9 7 -11 6 -12 -6 -2 -13 11 -20 8 -38
-11 -19 -21 -28 -23 -48 -15 -14 5 -28 7 -31 4 -3 -3 0 -5 6 -5 7 0 12 -5 12
-10 0 -7 -8 -6 -22 1 -21 11 -22 11 -9 -5 12 -14 12 -16 -4 -10 -13 5 -16 4
-11 -4 5 -8 1 -10 -10 -5 -11 4 -15 3 -10 -5 9 -14 -43 -5 -63 11 -12 10 -14
9 -8 -5 4 -12 2 -15 -8 -11 -8 3 -12 9 -10 14 3 5 -3 16 -14 26 -19 16 -20 18
-3 37 16 18 16 19 -1 13 -15 -6 -16 -4 -6 16 13 24 13 24 -4 47 -10 13 -10 13
5 2 9 -7 15 -22 13 -33 -2 -11 0 -17 6 -14 5 4 7 11 4 16 -4 5 0 9 7 9 8 0 9
3 3 8 -5 4 -17 16 -25 27 -15 20 -15 20 10 0 14 -11 22 -16 18 -11 -4 5 -3 15
4 23 6 7 8 16 4 20 -3 3 -6 1 -6 -5 0 -7 -4 -12 -10 -12 -12 0 -9 22 5 32 12
9 16 50 4 42 -5 -3 -9 -1 -9 4 0 6 7 13 16 16 9 4 12 11 7 18 -4 7 -8 30 -9
51 -1 25 2 34 7 25 5 -7 6 -22 3 -33 -8 -24 -1 -19 16 14 8 15 8 21 1 17 -6
-4 -11 0 -11 9 0 10 5 13 13 9 7 -5 6 0 -3 11 -14 17 -13 18 3 12 25 -10 21 2
-5 13 -18 7 -19 9 -5 9 16 1 22 13 17 36 -8 38 -8 45 2 51 7 5 8 2 3 -7 -5 -8
-4 -10 0 -6 14 12 15 38 2 30 -7 -3 -9 -3 -5 2 4 4 2 15 -5 23 -11 13 -9 14
13 2 14 -7 22 -9 18 -5 -4 5 -2 15 5 24 10 14 10 14 -4 3 -15 -11 -16 -9 -12
20 3 18 5 39 6 46 0 7 6 11 13 8 15 -6 7 24 -10 37 -7 5 -3 7 10 4 13 -3 21 1
21 9 0 7 -4 11 -9 8 -4 -3 -8 4 -8 16 0 14 4 19 13 14 6 -4 9 -4 5 1 -4 4 -2
15 5 23 11 13 9 14 -13 2 -25 -13 -25 -13 -6 8 12 13 17 31 14 46 -4 22 -3 24
13 15 25 -13 24 -4 -3 21 -17 16 -18 19 -5 15 9 -4 17 -3 18 1 0 5 2 21 4 37
2 15 -1 27 -6 27 -6 0 -7 -5 -3 -12 5 -7 3 -8 -6 -3 -10 6 -9 11 5 22 10 7 20
23 22 35 2 18 1 20 -7 8 -7 -12 -9 -10 -7 8 1 12 6 21 12 18 7 -2 12 2 12 10
0 7 -4 11 -9 8 -14 -9 -9 4 10 22 16 17 16 17 -6 12 -12 -3 -20 -2 -16 3 3 5
15 9 27 10 16 0 18 2 7 7 -20 9 -19 30 0 42 12 8 12 10 1 10 -11 0 -10 5 3 25
9 13 16 28 16 32 0 4 -5 1 -10 -7 -7 -10 -10 -11 -10 -2 0 7 7 15 15 18 8 4
12 10 9 15 -3 5 2 9 11 9 10 0 14 5 10 13 -4 6 1 3 9 -7 15 -19 22 -12 17 17
0 4 4 7 9 7 6 0 10 -5 10 -11z m1374 -547 c3 -5 -1 -9 -9 -9 -8 0 -12 4 -9 9
3 4 7 8 9 8 2 0 6 -4 9 -8z m-414 -258 c0 -8 -19 -13 -24 -6 -3 5 1 9 9 9 8 0
15 -2 15 -3z m-535 -224 c3 -5 -1 -10 -10 -10 -9 0 -13 5 -10 10 3 6 8 10 10
10 2 0 7 -4 10 -10z m-111 -45 c-7 -16 -24 -21 -24 -6 0 8 7 13 27 20 1 1 0
-6 -3 -14z m947 -118 c-10 -9 -11 -8 -5 6 3 10 9 15 12 12 3 -3 0 -11 -7 -18z
m-1288 -2 c-3 -9 -8 -14 -10 -11 -3 3 -2 9 2 15 9 16 15 13 8 -4z m-770 -376
c-9 -9 -12 -7 -10 9 1 14 5 18 11 12 7 -7 6 -14 -1 -21z m7 -23 c0 -3 -4 -8
-10 -11 -5 -3 -10 -1 -10 4 0 6 5 11 10 11 6 0 10 -2 10 -4z m424 -174 c3 -5
-1 -9 -9 -9 -8 0 -12 4 -9 9 3 4 7 8 9 8 2 0 6 -4 9 -8z m-394 -34 c0 -12 -6
-9 -26 13 -19 22 -19 22 4 8 12 -8 22 -17 22 -21z m360 28 c0 -2 -6 -9 -14
-15 -11 -9 -16 -9 -22 0 -4 7 -3 9 4 5 6 -3 13 -2 17 4 6 10 15 14 15 6z"/>
<path d="M765 1720 c3 -5 8 -10 11 -10 2 0 4 5 4 10 0 6 -5 10 -11 10 -5 0 -7
-4 -4 -10z"/>
<path d="M1430 894 c0 -8 5 -12 10 -9 6 4 8 11 5 16 -9 14 -15 11 -15 -7z"/>
<path d="M1075 770 c-3 -5 -1 -10 4 -10 6 0 11 5 11 10 0 6 -2 10 -4 10 -3 0
-8 -4 -11 -10z"/>
<path d="M750 2561 c0 -6 4 -13 10 -16 6 -3 7 1 4 9 -7 18 -14 21 -14 7z"/>
<path d="M1355 2040 c3 -5 8 -10 11 -10 2 0 4 5 4 10 0 6 -5 10 -11 10 -5 0
-7 -4 -4 -10z"/>
<path d="M341 1947 c-8 -10 -7 -14 2 -14 8 0 14 6 14 14 0 7 -1 13 -2 13 -2 0
-8 -6 -14 -13z"/>
<path d="M1486 1938 c3 -5 10 -6 15 -3 13 9 11 12 -6 12 -8 0 -12 -4 -9 -9z"/>
<path d="M2080 1436 c0 -2 11 -11 25 -20 14 -9 25 -13 25 -8 0 5 -11 14 -25
20 -14 6 -25 10 -25 8z"/>
<path d="M201 1187 c-8 -10 -7 -14 2 -14 8 0 14 6 14 14 0 7 -1 13 -2 13 -2 0
-8 -6 -14 -13z"/>
<path d="M174 1012 c3 -5 0 -13 -6 -15 -9 -4 -10 -6 -1 -6 17 -1 25 16 12 25
-7 4 -9 3 -5 -4z"/>
<path d="M2456 792 c-3 -5 1 -9 9 -9 8 0 12 4 9 9 -3 4 -7 8 -9 8 -2 0 -6 -4
-9 -8z"/>
<path d="M1475 441 c-3 -5 -2 -12 3 -15 5 -3 9 1 9 9 0 17 -3 19 -12 6z"/>
<path d="M45 350 c-3 -6 1 -7 9 -4 18 7 21 14 7 14 -6 0 -13 -4 -16 -10z"/>
<path d="M903 233 c-7 -2 -13 -9 -13 -15 0 -7 5 -7 13 1 8 6 18 7 22 3 5 -4 5
-1 1 6 -4 6 -8 12 -9 11 -1 0 -8 -3 -14 -6z"/>
<path d="M675 149 c-4 -6 -5 -12 -2 -15 2 -3 7 2 10 11 7 17 1 20 -8 4z"/>
</g>
</svg>
